<svg xmlns="http://www.w3.org/2000/svg" xmlns:xlink="http://www.w3.org/1999/xlink" viewBox="60 -50 350 330">
  <defs>
    <animateTransform id="leave-1-rotate" xlink:href="#leave-1" attributeName="transform" type="rotate" values="0, 254, 193; 3, 254, 193; -3, 254, 193; 2, 254, 193; -1, 254, 193; 0, 254, 193" dur="3.5s" calcMode="paced" repeatCount="indefinite" additive="sum"/>
    <animateTransform id="leave-2-rotate" xlink:href="#leave-2" begin="0s;leave-2-rotate.end+1.5s" attributeName="transform" type="rotate" values="0, 231, 274; 4, 231, 274; -3, 231, 274; 2, 231, 274; -1, 231, 274; 0, 231, 274" keyTimes="0; 0.18; 0.35; 0.5; 0.7; 1" dur="3s" additive="sum"/>
    <animateTransform xlink:href="#award" begin="4.4s" attributeName="transform" type="translate" values="-7 -14; -15 -100; -95 -198" keyTimes="0; 0.75; 1" dur="3s" fill="freeze"/>
    <animateTransform xlink:href="#award" begin="4.4s" attributeName="transform" type="scale" values="0; 0.1; 0.1; 0.32; 0.32; 0.55; 0.55; 1" keyTimes="0; 0.07; 0.12; 0.42; 0.5; 0.72; 0.8; 1" calcMode="linear" dur="3s" fill="freeze" additive="sum"/>
    <animateTransform xlink:href="#award" begin="4.4s" attributeName="transform" type="rotate" values="0 128 390; 25 128 390; 0 128 390; -25 128 390; -20 128 390; -15 128 390; 15 128 390; 10 128 390; 0 128 390" keyTimes="0; 0.07; 0.12; 0.42; 0.45; 0.5; 0.72; 0.8; 1" dur="3s" fill="freeze" additive="sum"/>
    <animateMotion xlink:href="#award" begin="4.4s" rotate="0" path="M179 61c24.19-9.24 29.8-15.84 29.42-20.44C207.18 25.43 138.73 1.78 96 34c-2.93 2.21-31.66 24.52-29 54 3.54 39.18 59.83 61.15 75.7 67.35 53.65 20.94 94.43 8.79 101.78 27.18 2.89 7.25.78 19.69-21.48 42.47" fill="freeze" dur="2s" calcMode="linear"/>
  </defs>

  <g id="clouds">
    <path fill="none" stroke="#fff" stroke-linecap="round" stroke-miterlimit="10" stroke-width="2" d="M51.31 23.72h39.77M71.09 13.45H43.73a12.4 12.4 0 10-24.8 0H1M79.35 13.45h22.2">
      <animate attributeType="CSS" attributeName="opacity" dur="0.2s" from="0" to="1" fill="freeze"/>
      <animateTransform attributeName="transform" type="translate" values="200 0; 0 0" keySplines="0, 0.55, 0.45, 1" calcMode="spline" dur="0.5s"/>

      <animate begin="4.6s" attributeType="CSS" attributeName="opacity" dur="0.4s" from="1" to="0" fill="freeze"/>
      <animateTransform begin="4.6s" attributeName="transform" type="translate" values="0 0; 0 -10" keySplines="0, 0.55, 0.45, 1" calcMode="spline" dur="0.5s"/>
    </path>
    <path fill="#fff" d="M221.64 65h-19.45a35.49 35.49 0 00-68-13.69A26.34 26.34 0 00121.3 48a26.72 26.72 0 00-24.8 17H81.35a10.5 10.5 0 000 21h140.3a10.5 10.5 0 000-21">
      <animate begin="3.03s" attributeType="CSS" attributeName="opacity" dur="0.2s" from="0" to="1" fill="freeze"/>
      <animateTransform begin="3.03s" attributeName="transform" type="translate" values="250 0; 0 0" keySplines="0, 0.55, 0.45, 1" calcMode="spline" dur="0.5s"/>

      <animate begin="4.6s" attributeType="CSS" attributeName="opacity" dur="0.4s" from="1" to="0" fill="freeze"/>
      <animateTransform begin="4.6s" attributeName="transform" type="translate" values="0 0; 0 -30" keySplines="0, 0.55, 0.45, 1" calcMode="spline" dur="0.5s"/>
    </path>
    <path fill="none" stroke="#fff" stroke-linecap="round" stroke-miterlimit="10" stroke-width="2" d="M258 91.28h39.78M286.05 81h22.2">
      <animate begin="3.06s" attributeType="CSS" attributeName="opacity" dur="0.2s" from="0" to="1" fill="freeze"/>
      <animateTransform begin="3.06s" attributeName="transform" type="translate" values="260 0; 0 0" keySplines="0, 0.55, 0.45, 1" calcMode="spline" dur="0.5s"/>

      <animate begin="4.6s" attributeType="CSS" attributeName="opacity" dur="0.4s" from="1" to="0" fill="freeze"/>
      <animateTransform begin="4.6s" attributeName="transform" type="translate" values="0 0; 0 -40" keySplines="0, 0.55, 0.45, 1" calcMode="spline" dur="0.5s"/>
    </path>
  </g>

  <g transform="translate(-5 0)">
    <path id="leave-1" fill="#e81a5a" d="M249.34 152.82a2 2 0 013.15 2c-1 7-2.07 20.33 4.85 19.4 4.94-.66-16.65-31.53 19.32-38.16a2 2 0 012.18 2.89c-1.32 2.74-2.83 6.61-2.73 9.9a2 2 0 003.71 1c4.1-6.15 15.1-17.86 36.59-10.7a2 2 0 011.35 1.54c.93 4.8 4.13 23.24-.29 28.72-5.09 6.31-15 4.14-16.18 10.25-1.3 6.91 7.51 4.82 13.42-.22a2 2 0 013.32 1.64c-.25 5.45-2.18 14-11.12 18.69-13.78 7.21-23.48-7-25.19-3.88-2.59 4.66 7.94 8.47 13.78 10.18a2 2 0 01.61 3.59c-10.52 7.74-29.13 10.28-37-5.41-8.3-16.59-12.93-12.49-18.19-20.38-5.71-8.57-4.33-22.54 8.38-31.05m29.4 32.47c.5 2.73 5.2 3.51 8.35 2.94s8.47-3.83 8-6.56-6.62-3.9-9.78-3.33-7.05 4.22-6.55 6.95"/>
    <path fill="none" stroke="#e81a5a" stroke-miterlimit="10" stroke-width="2" d="M248.87 273.88s-4.91-70.27 5.54-80.72"/>
  </g>

  <g id="award" transform="translate(-7 -14) scale(0 0)">
    <g id="parachute">
      <path fill="#fff" d="M69.33 1.65a55.58 55.58 0 0155.54 55.56c0-6.76-8.3-12.25-18.53-12.25s-18.31 5.35-18.52 12v.26c0-6.76-8.3-12.25-18.53-12.25s-18.54 5.49-18.54 12.25v-.26c-.22-6.64-8.42-12-18.52-12s-18.52 5.49-18.52 12.25A55.58 55.58 0 0169.3 1.62m0-1.66a57.31 57.31 0 00-57.21 57.25 1.66 1.66 0 103.32 0c0-5.84 7.57-10.59 16.87-10.59 9.11 0 16.68 4.66 16.86 10.38v.21a1.66 1.66 0 003.32 0c0-5.84 7.57-10.59 16.87-10.59S86.2 51.37 86.2 57.21a1.66 1.66 0 003.32 0V57c.18-5.73 7.74-10.39 16.86-10.39 9.3 0 16.87 4.75 16.87 10.59a1.66 1.66 0 103.32 0A57.3 57.3 0 0069.34-.05"/>
      <path fill="#fe6183" d="M69.32 1.65a55.58 55.58 0 00-55.58 55.56c0-6.76 8.3-12.25 18.52-12.25s18.3 5.35 18.52 12c.52-34.43 8.61-55.32 18.53-55.32"/>
      <path fill="#f7396b" d="M69.33 1.65c-9.93 0-18 20.9-18.54 55.32v.26c0-6.76 8.3-12.25 18.53-12.25s18.55 5.5 18.55 12.23v-.26c-.51-34.43-8.6-55.33-18.52-55.33"/>
      <path fill="#e81a5a" d="M69.33 1.65c9.92 0 18 20.9 18.54 55.33.21-6.65 8.41-12 18.52-12s18.48 5.5 18.48 12.23A55.59 55.59 0 0069.28 1.62"/>
      <path fill="none" stroke="#fff" stroke-linecap="round" stroke-linejoin="round" stroke-width="2" d="M69.34 137.08L13.75 57.25M69.34 137.08L50.8 57.25M87.86 57.25l-18.52 79.83M124.92 57.25l-55.58 79.83"/>
    </g>

    <g id="suitcase">
      <path fill="#a67ee5" stroke="#fff" stroke-miterlimit="10" stroke-width="2" d="M105.76 247.09a3.54 3.54 0 003.53-3.53v-5.07a3.53 3.53 0 10-7.06 0v5.07a3.55 3.55 0 003.53 3.53z"/>
      <path fill="#a67ee5" stroke="#fff" stroke-miterlimit="10" stroke-width="2" d="M30.22 247.09a3.54 3.54 0 003.53-3.53v-5.07a3.53 3.53 0 10-7.06 0v5.07a3.54 3.54 0 003.53 3.53z"/>
      <path fill="#a67ee5" stroke="#fff" stroke-miterlimit="10" stroke-width="2" d="M24.79 238.5h74.5a11.38 11.38 0 0011.35-11.35v-66.08a11.38 11.38 0 00-11.35-11.35h-74.5a11.38 11.38 0 00-11.35 11.35v66.08a11.38 11.38 0 0011.35 11.35"/>
      <path fill="#a67ee5" stroke="#fff" stroke-miterlimit="10" stroke-width="2" d="M53.13 137.36h32.4a4.09 4.09 0 014.08 4.08v16a1.19 1.19 0 01-1.19 1.19h-2.7a1.19 1.19 0 01-1.19-1.19v-14.37a1.27 1.27 0 00-1.27-1.27H55.4a1.27 1.27 0 00-1.27 1.27v14.38a1.19 1.19 0 01-1.19 1.19h-2.7a1.19 1.19 0 01-1.19-1.19v-16a4.1 4.1 0 014.08-4.09z"/>
      <path fill="#a67ee5" stroke="#fff" stroke-miterlimit="10" stroke-width="2" d="M39.21 238.5h74.5a11.38 11.38 0 0011.35-11.35v-66.08a11.38 11.38 0 00-11.35-11.35h-74.5a11.38 11.38 0 00-11.34 11.35v66.08a11.39 11.39 0 0011.34 11.35z"/>
      <path fill="#a67ee5" stroke="#fff" stroke-miterlimit="10" stroke-width="2" d="M21.99 171.89h.67v44.46h-.67a3.53 3.53 0 01-3.52-3.51v-37.43a3.52 3.52 0 013.52-3.52z"/>
      <path fill="none" stroke="#fff" stroke-linecap="round" stroke-miterlimit="10" stroke-width="2" d="M108.1 170.64H44.84M108.1 194.12H44.84M108.1 217.59H44.84"/>
    </g>
  </g>

  <g id="leave-2" transform="translate(0 1)">
    <path fill="#fe6183" d="M308.79 229.4a2.14 2.14 0 01.55 2.17c-1.06 3.43-4.58 12.85-12.1 16.34-5.13 2.38-8.33-2.7-10.92.77s2.1 5 6.92 4.31a2.16 2.16 0 012.14 3.34 14.34 14.34 0 01-11.73 6.67c-10.84.27-12.55-11.58-14.57-10.19-2.72 1.89 1.27 6.55 4.39 9.57a2.16 2.16 0 01-1.3 3.71c-8.76.84-19.72-3.51-19.8-15-.08-12.94-4.25-11.8-5.11-18.35-.91-6.88 3.88-14.88 13.74-16.69a2.16 2.16 0 012.31 3.11c-2.41 4.73-6 12.6-2.82 12.56 3.46 0-1.58-22.58 28.43-15.26a2.16 2.16 0 011.09 3.54l-.1.11a2.16 2.16 0 002.41 3.45c3.66-1.52 9.16-1.27 16.47 5.84"/>
    <path fill="none" stroke="#fe6183" stroke-miterlimit="10" stroke-width="2" d="M231 273.88s3.48-30.11 21.7-30.11"/>
  </g>

  <path id="ground" fill="none" stroke="#fff" stroke-linecap="round" stroke-miterlimit="10" stroke-width="2" d="M142 275h130">
    <animate dur="0.5s" attributeName="d" values="M2 275h0;M2 275h270;M142 275h130" keyTimes="0; 0.7; 1" fill="freeze"/>
  </path>
</svg>
